<svg xmlns="http://www.w3.org/2000/svg" viewBox="0 0 101.62 23.36"><defs><style>.cls-1{fill:#333;}</style></defs><title>Asset 26</title><g id="Layer_2" data-name="Layer 2"><g id="Layer_2-2" data-name="Layer 2"><path class="cls-1" d="M16.84,23l0,0,0,0L1.95,3.83V22.38a.9.9,0,0,1-.29.68.9.9,0,0,1-.68.29.9.9,0,0,1-.68-.29A.9.9,0,0,1,0,22.38V1A.9.9,0,0,1,.65.07.89.89,0,0,1,1.74.39L16.61,19.54V1a.93.93,0,0,1,.28-.68A.93.93,0,0,1,17.57,0a1,1,0,0,1,.7.29.93.93,0,0,1,.28.68V22.45a.31.31,0,0,1,0,.1.27.27,0,0,1,0,.08.51.51,0,0,1,0,.1l0,.08a.21.21,0,0,1,0,.08l0,.08-.06.08-.06.06,0,0s0,0,0,0l0,0-.1,0-.06,0-.11,0-.06,0-.18,0-.19,0-.06,0-.13,0-.06,0L17,23.16l-.07,0,0,0Z"/><path class="cls-1" d="M37,23.36a11.22,11.22,0,0,1-8.23-3.41,11.22,11.22,0,0,1-3.41-8.23,11.22,11.22,0,0,1,3.41-8.23,11.65,11.65,0,0,1,16.47,0,11.22,11.22,0,0,1,3.41,8.23,11.22,11.22,0,0,1-3.41,8.23A11.22,11.22,0,0,1,37,23.36ZM37,2a9.31,9.31,0,0,0-6.85,2.86,9.34,9.34,0,0,0-2.84,6.85,9.34,9.34,0,0,0,2.84,6.85,9.69,9.69,0,0,0,13.71,0,9.31,9.31,0,0,0,2.86-6.85A9.31,9.31,0,0,0,43.9,4.86,9.31,9.31,0,0,0,37,2Z"/><path class="cls-1" d="M57.32,22.38a1,1,0,0,1-.28.7,1,1,0,0,1-.68.28.94.94,0,0,1-1-1V1.09A.88.88,0,0,1,56.1.16.89.89,0,0,1,57.19.6l9.68,16L76.55.6A.89.89,0,0,1,77.63.16a.88.88,0,0,1,.71.93V22.38a1,1,0,0,1-.29.7.93.93,0,0,1-.68.28,1,1,0,0,1-.68-.28,1,1,0,0,1-.28-.7V4.57L67.69,19l0,0v0l-.06.08-.06.06-.06.06-.08.06,0,0,0,0-.1,0-.08,0-.1,0-.08,0-.1,0-.1,0-.08,0-.1,0-.08,0-.1,0h0a0,0,0,0,0,0,0l0,0-.08-.06-.06-.06-.06-.06L66.05,19v0l0,0L57.32,4.57Z"/><path class="cls-1" d="M87.75,23.36a1,1,0,0,1-1-1V1a.9.9,0,0,1,.29-.68A.86.86,0,0,1,87.75,0l12.9,0a.9.9,0,0,1,.68.29.93.93,0,0,1,.29.68,1,1,0,0,1-.29.7.93.93,0,0,1-.68.28L88.72,2v8.74h8.92a1,1,0,0,1,.68,1.66.9.9,0,0,1-.68.29H88.72v8.74h11.92a1,1,0,0,1,0,1.95Z"/></g></g></svg>