<svg xmlns="http://www.w3.org/2000/svg" viewBox="0 0 89 89"><defs><style>.cls-1{fill:#f2f2f2;}.cls-2{fill:#ccc;}.cls-3{fill:none;stroke:blue;stroke-miterlimit:10;stroke-width:2px;}</style></defs><title>Asset 25</title><g id="Layer_2" data-name="Layer 2"><g id="Layer_2-2" data-name="Layer 2"><rect class="cls-1" x="1" y="1" width="87" height="87"/><path class="cls-2" d="M87,2V87H2V2H87m2-2H0V89H89V0Z"/><path class="cls-1" d="M1.71,88a45.25,45.25,0,0,1,85.57,0Z"/><path class="cls-2" d="M44.5,58.48A43.85,43.85,0,0,1,71,67.28,44.69,44.69,0,0,1,85.86,87H3.14A44.69,44.69,0,0,1,18,67.28a43.86,43.86,0,0,1,26.48-8.8m0-2A46.25,46.25,0,0,0,.34,89H88.66A46.25,46.25,0,0,0,44.5,56.48Z"/><polyline class="cls-3" points="23.07 29.62 44.5 15.6 44.5 43.64 65.93 29.62"/><path class="cls-2" d="M44.5,9.29A20.33,20.33,0,1,1,24.17,29.62,20.35,20.35,0,0,1,44.5,9.29m0-2A22.33,22.33,0,1,0,66.83,29.62,22.33,22.33,0,0,0,44.5,7.29Z"/></g></g></svg>